<svg version="1.1" id="Layer_1" xmlns="http://www.w3.org/2000/svg" xmlns:xlink="http://www.w3.org/1999/xlink" x="0px" y="0px"
	 width="100%" viewBox="0 0 288 288" enable-background="new 0 0 288 288" xml:space="preserve">
<path fill="#BB8F39" opacity="1.000000" stroke="none" 
	d="
M1.000000,106.000000 
	C1.000000,70.666679 1.000000,35.833363 1.000000,1.000033 
	C96.999947,1.000022 192.999893,1.000022 288.999878,1.000011 
	C288.999939,96.999908 288.999939,192.999817 288.999969,288.999817 
	C193.000137,288.999878 97.000267,288.999878 1.000202,288.999939 
	C1.000000,228.166672 1.000000,167.333328 1.000000,106.000000 
M206.298462,58.044861 
	C205.709534,57.740910 205.094452,57.478569 204.535416,57.127075 
	C163.668228,31.431953 119.048424,33.059734 79.816597,61.621944 
	C78.752266,62.396816 77.257439,62.580368 76.113205,62.349823 
	C80.911026,59.114464 82.404251,54.812172 79.998352,49.475971 
	C79.550003,48.481567 77.605614,47.070454 77.445564,47.200275 
	C74.870346,49.289116 71.447365,51.171204 70.289864,53.960487 
	C68.791092,57.572147 72.572540,62.463223 76.327530,63.666920 
	C71.333031,69.107010 66.362068,74.569275 61.300011,79.945770 
	C60.888157,80.383202 59.853539,80.234306 59.414925,79.483932 
	C58.712948,76.065315 58.144726,72.608597 57.191288,69.261612 
	C57.009968,68.625092 54.666470,67.831123 54.403656,68.114449 
	C52.430229,70.241920 49.208248,72.691856 49.310993,74.904686 
	C49.452038,77.942513 52.177124,80.860344 53.794930,83.829597 
	C55.605156,82.624435 57.415382,81.419273 59.667149,80.994423 
	C58.871868,82.604530 58.219555,84.305725 57.260300,85.811363 
	C35.766830,119.547470 33.285088,154.672241 49.497696,191.175720 
	C50.964554,194.478409 52.520596,197.741470 53.307381,201.159180 
	C50.398125,197.163589 46.378269,196.221939 41.872173,197.407639 
	C40.754059,197.701859 39.255466,199.159439 39.148216,200.206833 
	C38.797752,203.629410 43.357471,208.105469 46.659607,208.028320 
	C52.845455,207.883759 54.138252,206.641205 54.663849,201.167999 
	C56.541538,204.733200 58.419228,208.298416 59.660824,211.352676 
	C56.084415,209.213989 48.524651,209.097946 47.901241,211.590195 
	C47.412506,213.544098 48.920059,216.410645 50.300686,218.323090 
	C52.432888,221.276581 57.921165,221.176392 61.569229,218.297058 
	C65.260170,215.383896 60.472805,213.964951 60.966824,211.387009 
	C64.349258,215.404297 67.731697,219.421585 70.288071,223.024490 
	C66.407318,219.361298 62.270172,220.639740 58.378162,222.772903 
	C57.541447,223.231506 56.929932,225.810883 57.447578,226.673477 
	C58.513512,228.449783 60.440907,230.986694 61.961437,230.951447 
	C65.313034,230.873718 68.680725,229.519943 71.881287,228.274323 
	C72.167404,228.162979 71.283585,225.045532 71.820755,223.070358 
	C75.554070,226.386978 79.287376,229.703598 82.302719,232.991425 
	C78.039574,229.329651 73.666115,229.946579 69.637794,233.145233 
	C68.747177,233.852432 68.356186,236.512924 68.973953,237.493774 
	C69.967926,239.071976 72.084152,241.098068 73.563194,240.975021 
	C76.615463,240.721115 79.750961,239.507248 82.437630,237.965714 
	C83.288124,237.477737 82.821983,234.695038 83.625282,232.517365 
	C84.950798,233.166580 86.332794,233.721710 87.593605,234.478699 
	C123.891006,256.271179 160.713364,257.381470 198.126251,237.405777 
	C199.599854,236.618988 201.394730,236.433899 202.843231,236.642227 
	C201.623032,237.500946 200.318649,238.263092 199.199905,239.238220 
	C196.766769,241.358963 195.914093,249.884338 198.308945,250.527542 
	C200.585892,251.139099 204.581924,250.043030 205.908951,248.267715 
	C207.443909,246.214279 207.385452,242.535614 207.025986,239.687881 
	C206.852615,238.314499 204.403870,237.228317 202.788208,235.305679 
	C206.482208,233.103683 210.176224,230.901703 213.341217,229.293961 
	C208.459015,232.292664 208.996063,236.717972 210.568481,241.114883 
	C210.938934,242.150787 213.340729,243.529816 214.021271,243.187378 
	C216.175537,242.103424 219.211456,240.537903 219.594650,238.681442 
	C220.198273,235.757111 219.150848,232.375198 218.239746,229.356827 
	C218.064590,228.776581 215.298767,228.978333 213.358414,228.034241 
	C219.064896,221.866730 224.763092,215.691452 230.512268,209.564041 
	C230.714127,209.348907 231.423004,209.609512 231.567947,210.409805 
	C228.836624,214.801178 231.327759,218.355484 233.706467,221.692581 
	C234.153625,222.319870 236.836212,222.257980 237.681946,221.550888 
	C243.396011,216.773560 242.654617,211.330811 235.567810,206.177841 
	C234.337555,207.350128 233.057251,208.570099 231.317673,209.014160 
	C234.216049,204.670319 237.114426,200.326462 240.109039,196.711243 
	C237.397079,201.308975 238.728806,205.383743 242.231552,208.702255 
	C243.075439,209.501755 245.893051,209.363663 246.920151,208.546738 
	C248.344040,207.414246 250.049423,204.903519 249.655289,203.566132 
	C248.742981,200.470383 246.877655,197.537109 244.842239,194.981140 
	C244.382675,194.404053 241.652176,195.635361 239.534332,195.341446 
	C239.911041,194.251038 240.197098,193.118835 240.677628,192.076279 
	C255.718384,159.443085 255.161041,127.111961 238.913025,95.039764 
	C238.300568,93.830826 238.271591,92.326271 238.657379,91.142578 
	C242.091263,91.794472 245.508194,92.820381 248.964508,92.976913 
	C251.609192,93.096695 252.051620,91.140335 251.098343,88.744324 
	C248.303177,81.718987 242.300766,80.364143 236.141983,85.452698 
	C236.767548,87.307564 237.393112,89.162430 237.311264,91.158508 
	C234.860229,87.089226 232.409195,83.019936 230.688568,79.184799 
	C234.266113,82.401413 238.156616,81.015594 241.911865,79.743965 
	C242.678696,79.484291 243.714432,77.503159 243.469147,77.171646 
	C241.654968,74.719612 239.915833,71.273781 237.430313,70.518280 
	C234.899887,69.749138 231.403961,71.407501 228.684555,72.730194 
	C228.219666,72.956306 229.528473,76.829071 229.333252,79.305740 
	C225.901215,75.393341 222.469177,71.480942 220.017075,67.767944 
	C223.762360,70.770088 227.696594,70.248444 231.554062,68.158875 
	C232.536987,67.626434 233.930161,65.748947 233.745163,65.492699 
	C232.147995,63.280319 230.480392,59.971405 228.351135,59.573753 
	C225.531662,59.047203 222.083817,60.473553 219.327316,61.883965 
	C218.502716,62.305882 219.087555,65.482384 218.102615,67.317810 
	C215.724457,64.862984 213.346283,62.408161 211.812073,59.949169 
	C214.941666,59.100605 218.138458,58.428883 221.155014,57.282814 
	C221.938034,56.985321 222.708710,54.331970 222.554276,54.234425 
	C219.630203,52.387543 216.570648,49.413475 213.530518,49.403706 
	C208.865707,49.388706 206.296432,53.786896 206.298462,58.044861 
M188.172974,244.624374 
	C182.847198,246.608627 183.330475,251.232025 183.583618,255.479370 
	C183.632858,256.305389 185.920486,257.726196 187.028519,257.598267 
	C188.911774,257.380829 190.802170,256.347565 192.463974,255.299438 
	C194.841965,253.799622 195.899902,247.495331 193.855576,244.829437 
	C193.153198,243.913544 190.578186,244.433685 188.172974,244.624374 
M138.168106,34.680828 
	C139.042496,35.446564 139.822205,36.708397 140.806900,36.896370 
	C146.576950,37.997833 150.218246,35.522034 151.942200,29.739952 
	C152.740372,27.062902 151.954269,25.708265 149.093048,25.313778 
	C142.661728,24.427061 141.032944,25.659637 138.168106,34.680828 
M162.908051,263.657837 
	C164.175674,260.588135 165.544006,257.552795 166.614548,254.415848 
	C166.798889,253.875641 165.576675,252.179199 165.242325,252.244080 
	C162.283234,252.818268 158.557068,252.834030 156.685989,254.672272 
	C154.789856,256.535156 154.742981,260.280304 153.886124,263.201019 
	C156.318604,263.487732 158.750031,263.784149 161.184860,264.049286 
	C161.501282,264.083771 161.835251,263.956787 162.908051,263.657837 
M222.849991,232.619064 
	C224.131699,232.845642 225.731216,233.678146 226.643173,233.199783 
	C232.275070,230.245651 233.222900,222.941071 228.514206,218.723083 
	C227.829285,218.109558 225.689453,218.266205 224.791107,218.887756 
	C220.062241,222.159744 219.701050,224.724991 222.849991,232.619064 
M30.484735,138.969650 
	C27.080545,137.266052 25.609125,138.548279 25.301767,142.121964 
	C24.693764,149.191315 28.729223,152.721619 36.409966,151.698624 
	C37.893456,143.877121 37.325489,142.530487 30.484735,138.969650 
M153.035339,33.862007 
	C153.770889,35.033791 154.256424,36.886143 155.283813,37.263554 
	C160.715759,39.259026 166.246460,36.140121 167.292267,30.461699 
	C167.474472,29.472391 166.079926,27.469980 165.006165,27.091499 
	C158.868912,24.928246 156.772888,26.119808 153.035339,33.862007 
M37.237885,169.961578 
	C34.418156,169.929977 31.598429,169.898361 28.778702,169.866760 
	C29.031662,172.083481 29.098444,174.341507 29.579021,176.507736 
	C30.403593,180.224518 33.529697,180.629944 36.562401,180.666870 
	C38.259224,180.687515 39.963615,180.086288 41.664597,179.765274 
	C41.064995,177.125427 40.559788,174.457901 39.799797,171.865067 
	C39.608456,171.212250 38.601284,170.798569 37.237885,169.961578 
M29.567514,113.972855 
	C29.199038,118.090874 33.070732,123.750740 36.834949,123.260292 
	C38.407429,123.055412 40.017365,119.389526 40.694641,117.034004 
	C41.497990,114.240036 36.975601,108.645073 33.886860,108.212875 
	C30.047781,107.675667 30.662907,111.140587 29.567514,113.972855 
M69.183319,61.516674 
	C68.169426,59.913715 67.155525,58.310760 66.141632,56.707802 
	C64.180000,58.062893 61.944733,59.151756 60.313541,60.828346 
	C56.889114,64.348068 59.838890,67.615273 61.356064,70.750580 
	C61.809307,71.687233 64.062439,72.811806 64.144966,72.714050 
	C66.191147,70.290138 68.166527,67.783699 69.870728,65.110992 
	C70.261543,64.498085 69.608696,63.219704 69.183319,61.516674 
M101.740257,245.061935 
	C99.427727,246.582001 96.971535,247.933365 94.880707,249.713791 
	C94.150139,250.335892 93.866020,252.929443 94.149048,253.069977 
	C96.875961,254.424057 100.220131,256.903015 102.497543,256.195374 
	C105.348061,255.309631 107.360924,251.728104 109.735382,249.310272 
	C107.656403,247.925110 105.585548,246.527359 103.487656,245.171463 
	C103.238571,245.010468 102.841713,245.078125 101.740257,245.061935 
M177.777725,39.538479 
	C179.108261,38.066235 180.663940,36.731300 181.679062,35.066708 
	C182.227692,34.167110 182.162766,31.747366 181.846283,31.644878 
	C178.944092,30.705027 175.387833,28.826122 173.084717,29.781719 
	C170.498901,30.854603 168.950577,34.539513 167.145630,37.219208 
	C166.954529,37.502934 167.991211,39.241566 168.593475,39.324593 
	C171.415421,39.713604 174.284714,39.759323 177.777725,39.538479 
M39.781967,183.619705 
	C37.604202,183.947968 35.426441,184.276245 33.248680,184.604507 
	C33.684704,186.797440 33.859638,189.084686 34.610821,191.163757 
	C36.199539,195.560822 39.975143,194.986786 43.415962,194.352707 
	C44.747158,194.107376 47.029961,192.286911 46.946930,192.114441 
	C45.645103,189.410721 44.078968,186.825256 42.430050,184.306625 
	C42.160118,183.894348 41.204762,183.930801 39.781967,183.619705 
M247.718414,193.712921 
	C252.230896,198.328568 253.338455,198.101044 255.678589,192.073944 
	C255.918304,191.456543 256.203430,190.848724 256.365631,190.210571 
	C257.499268,185.751099 253.715485,184.198303 251.263718,181.995758 
	C250.532394,181.338776 248.032288,181.241653 247.913239,181.532028 
	C246.821884,184.193756 245.831024,186.956711 245.362900,189.781631 
	C245.197662,190.778717 246.556564,192.028351 247.718414,193.712921 
M30.632343,154.023865 
	C27.136822,152.986008 25.710890,154.215103 25.971266,157.904083 
	C26.400358,163.983429 27.908516,165.506805 34.508789,166.506912 
	C37.533226,166.965179 38.763222,166.232834 38.545197,162.920395 
	C38.230568,158.140335 36.076103,155.211029 30.632343,154.023865 
M26.426065,129.574036 
	C26.773829,133.517715 32.043713,139.009171 34.985138,137.599014 
	C36.718742,136.767883 38.416985,132.039276 37.559917,130.451004 
	C35.943836,127.456161 32.469574,125.464035 29.767693,123.055115 
	C28.694946,124.971306 27.622198,126.887489 26.426065,129.574036 
M203.768005,51.585125 
	C205.945724,49.742062 208.123428,47.899002 210.301147,46.055931 
	C208.407578,44.401455 206.719086,42.376938 204.569016,41.185242 
	C201.820435,39.661835 194.765686,42.924862 194.699387,46.210266 
	C194.662811,48.022038 198.084320,50.021362 200.149536,51.684464 
	C200.752213,52.169807 202.052567,51.788776 203.768005,51.585125 
M254.072632,153.122803 
	C251.290863,160.245148 252.586533,163.768097 258.874908,166.881943 
	C261.503326,168.183441 262.830719,167.504532 263.617371,164.789368 
	C265.594025,157.966873 263.037842,154.483551 254.072632,153.122803 
M95.066605,245.684219 
	C95.329330,244.421890 96.083298,242.204941 95.777420,242.047531 
	C93.220360,240.731659 90.351700,238.749710 87.807785,239.033981 
	C85.212845,239.323944 82.797951,241.852188 80.529037,243.679596 
	C80.228195,243.921906 80.933090,246.153839 81.715134,246.878036 
	C86.362007,251.181000 89.067551,250.963074 95.066605,245.684219 
M244.160416,101.334427 
	C245.723557,106.916351 250.077057,107.359596 254.794861,107.077950 
	C257.720612,106.903282 258.365448,105.468681 257.462280,102.722122 
	C255.413895,96.492844 252.894318,94.998672 246.293900,96.125610 
	C243.311478,96.634804 242.734680,98.070679 244.160416,101.334427 
M40.958069,86.274635 
	C40.757725,89.867073 44.321735,96.759392 46.484600,96.113121 
	C48.591610,95.483536 50.441113,92.736267 51.593067,90.501022 
	C52.880127,88.003616 49.286209,80.392403 46.895996,80.659683 
	C44.949650,80.877342 43.280403,83.587463 41.495373,85.200195 
	C41.377686,85.306526 41.320393,85.479706 40.958069,86.274635 
M169.033188,256.877106 
	C169.412872,258.527588 169.872726,261.620270 170.159775,261.604279 
	C172.878967,261.453125 176.610168,261.664337 178.011246,260.026825 
	C179.888336,257.833008 180.093857,254.116379 180.683853,250.990692 
	C180.804337,250.352295 179.174454,248.647446 178.818909,248.771713 
	C175.967850,249.768173 173.105240,250.878723 170.525162,252.421097 
	C169.659134,252.938828 169.599991,254.806305 169.033188,256.877106 
M136.081604,253.238144 
	C134.280594,253.053055 131.976608,252.079346 130.780273,252.842331 
	C128.048706,254.584503 125.750725,257.077576 123.534561,259.501434 
	C123.047585,260.034058 123.485962,262.431641 123.748947,262.475800 
	C126.881744,263.001373 130.197601,263.940674 133.190414,263.358215 
	C135.993393,262.812683 137.880066,256.344360 136.081604,253.238144 
M124.763954,31.441164 
	C124.892044,33.737465 125.020134,36.033768 125.148224,38.330074 
	C127.983978,37.736191 131.743744,38.039970 133.417435,36.317165 
	C135.429199,34.246353 135.706100,30.462402 136.596069,27.380314 
	C136.670151,27.123760 135.758286,26.413109 135.193954,26.169634 
	C131.997223,24.790421 126.728012,27.118986 124.763954,31.441164 
M254.519241,123.924179 
	C253.907196,124.128410 252.750000,124.383171 252.763550,124.529411 
	C253.040497,127.516731 252.449402,131.385803 254.098801,133.233826 
	C255.992783,135.355896 259.871429,135.769836 262.968170,136.640747 
	C263.229340,136.714203 264.547638,134.656097 264.608429,133.546326 
	C264.956360,127.193176 263.356537,125.629089 254.519241,123.924179 
M187.632339,45.352364 
	C190.505173,43.675873 193.469223,42.127460 196.167389,40.205730 
	C196.657578,39.856598 196.423447,37.179993 195.903473,36.943901 
	C193.279129,35.752373 190.104614,33.787830 187.783905,34.441265 
	C185.192230,35.170994 183.219925,38.343025 181.216888,40.658699 
	C180.917328,41.005009 181.662674,42.867393 182.380478,43.348949 
	C183.713684,44.243374 185.382996,44.636787 187.632339,45.352364 
M121.245667,34.683357 
	C121.422050,32.161129 123.513664,28.645712 118.734795,28.425533 
	C116.716415,28.332537 113.673058,28.892147 112.797752,30.251310 
	C111.167892,32.782150 110.636490,36.084217 109.984741,39.137184 
	C109.817551,39.920315 111.105713,41.831734 111.390167,41.766376 
	C114.040565,41.157410 116.762993,40.508675 119.148895,39.265617 
	C120.186844,38.724850 120.489983,36.773697 121.245667,34.683357 
M87.788475,40.045437 
	C86.519073,40.834450 85.107262,41.464817 84.012131,42.447952 
	C82.157005,44.113369 82.499924,53.292618 84.409569,53.357201 
	C86.966454,53.443672 90.911903,52.227882 91.872604,50.349602 
	C93.280373,47.597260 92.669144,43.759659 92.577118,40.393848 
	C92.569847,40.128170 89.902405,39.935219 87.788475,40.045437 
M108.790100,255.489105 
	C108.588013,256.414520 108.126793,258.120789 108.221390,258.152191 
	C111.352638,259.191254 115.050713,261.490723 117.571594,260.579346 
	C120.177193,259.637329 121.673653,255.570923 123.514977,252.778778 
	C123.588295,252.667633 122.313454,251.397949 121.502785,251.017273 
	C116.475838,248.656723 113.683342,249.570068 108.790100,255.489105 
M41.174686,95.058060 
	C39.846447,94.799973 37.494297,94.055801 37.349991,94.359772 
	C36.053513,97.090721 33.810143,100.377853 34.476349,102.768219 
	C35.228954,105.468575 38.649712,107.467789 41.075218,109.582596 
	C41.279762,109.760963 43.021423,108.697647 43.558586,107.886452 
	C46.472740,103.485664 45.933319,100.335960 41.174686,95.058060 
M256.205566,121.313828 
	C263.222839,123.296066 262.726349,119.235100 260.953400,113.875969 
	C259.478088,109.416603 255.633270,109.991745 252.246597,109.987175 
	C251.053818,109.985565 248.773773,111.407593 248.827301,111.568535 
	C249.780075,114.433029 250.854538,117.291122 252.293335,119.938332 
	C252.705032,120.695824 254.348404,120.783905 256.205566,121.313828 
M256.063812,168.311737 
	C251.881332,166.484238 250.168396,167.913864 249.905762,173.451294 
	C249.754303,176.644669 254.581436,183.019318 257.218262,182.428909 
	C261.458618,181.479462 261.202209,177.262161 260.956177,174.300446 
	C260.793701,172.344803 258.200134,170.591125 256.063812,168.311737 
M100.045029,46.848019 
	C101.407120,46.260082 102.877205,45.840405 104.109116,45.049671 
	C106.788658,43.329735 108.662384,34.911739 106.405090,34.058418 
	C104.150467,33.206100 100.229156,33.757149 98.515793,35.316341 
	C96.771179,36.903965 96.407845,40.450840 96.282829,43.178471 
	C96.225883,44.421013 98.197556,45.756538 100.045029,46.848019 
M263.552765,141.178284 
	C260.618317,140.060959 257.683868,138.943634 254.063339,137.565079 
	C253.912552,140.510529 253.708771,142.286636 253.753830,144.056396 
	C253.857376,148.122986 259.013885,153.048279 262.634460,152.044128 
	C267.100159,150.805573 264.466309,146.798615 264.957672,144.027664 
	C265.077209,143.353424 264.403778,142.538589 263.552765,141.178284 
M143.392441,254.148499 
	C141.936920,256.121155 140.273453,257.975952 139.073486,260.093384 
	C137.162964,263.464722 138.586746,264.916199 142.242996,265.112366 
	C149.392166,265.496002 152.568726,261.916107 151.483673,253.907257 
	C149.108871,253.907257 146.654053,253.907257 143.392441,254.148499 
z"/>
<path fill="#513025" opacity="1.000000" stroke="none" 
	d="
M213.870224,228.699707 
	C210.176224,230.901703 206.482208,233.103683 202.900543,235.648560 
	C203.012894,235.991455 203.039902,235.968445 203.039902,235.968445 
	C201.394730,236.433899 199.599854,236.618988 198.126251,237.405777 
	C160.713364,257.381470 123.891006,256.271179 87.593605,234.478699 
	C86.332794,233.721710 84.950798,233.166580 83.309166,232.752548 
	C82.993050,232.987732 83.020683,233.020218 83.020683,233.020218 
	C79.287376,229.703598 75.554070,226.386978 71.405350,223.214142 
	C70.989937,223.357941 71.114128,223.438873 71.114128,223.438873 
	C67.731697,219.421585 64.349258,215.404297 60.594452,211.574982 
	C60.222076,211.762939 60.296917,211.863617 60.296917,211.863617 
	C58.419228,208.298416 56.541538,204.733200 54.336765,201.085983 
	C54.009682,201.003967 54.035217,201.022934 54.035217,201.022934 
	C52.520596,197.741470 50.964554,194.478409 49.497696,191.175720 
	C33.285088,154.672241 35.766830,119.547470 57.260300,85.811363 
	C58.219555,84.305725 58.871868,82.604530 59.431271,80.631882 
	C59.195393,80.269341 59.108299,80.357857 59.108299,80.357864 
	C59.853539,80.234306 60.888157,80.383202 61.300011,79.945770 
	C66.362068,74.569275 71.333031,69.107010 76.162956,63.344032 
	C75.998383,63.021145 75.963356,63.039665 75.963356,63.039665 
	C77.257439,62.580368 78.752266,62.396816 79.816597,61.621944 
	C119.048424,33.059734 163.668228,31.431953 204.535416,57.127075 
	C205.094452,57.478569 205.709534,57.740910 206.641418,58.028046 
	C206.984360,58.011230 206.973648,57.978859 207.088562,58.333771 
	C208.484268,59.127514 209.765045,59.566345 211.022781,59.997650 
	C210.999741,59.990120 210.968124,59.953339 210.968124,59.953339 
	C213.346283,62.408161 215.724457,64.862984 218.564789,67.367455 
	C219.026947,67.417099 219.037155,67.568542 219.037155,67.568542 
	C222.469177,71.480942 225.901215,75.393341 229.658401,79.146942 
	C229.983551,78.988152 229.958160,78.950653 229.958160,78.950653 
	C232.409195,83.019936 234.860229,87.089226 237.654602,91.072281 
	C237.997955,90.986061 237.970703,90.959473 237.970703,90.959473 
	C238.271591,92.326271 238.300568,93.830826 238.913025,95.039764 
	C255.161041,127.111961 255.718384,159.443085 240.677628,192.076279 
	C240.197098,193.118835 239.911041,194.251038 239.758789,195.671692 
	C239.983261,196.001923 240.012817,195.982620 240.012817,195.982620 
	C237.114426,200.326462 234.216049,204.670319 231.563202,209.375244 
	C231.808731,209.736328 231.895569,209.648376 231.895569,209.648376 
	C231.423004,209.609512 230.714127,209.348907 230.512268,209.564041 
	C224.763092,215.691452 219.064896,221.866730 213.562683,228.402588 
	C213.766937,228.770950 213.870224,228.699707 213.870224,228.699707 
M248.994461,149.341812 
	C249.001022,147.675720 249.017548,146.009613 249.012695,144.343552 
	C248.874878,97.065659 216.108154,55.668545 169.841309,44.316414 
	C124.072403,33.086456 75.593590,54.793411 53.708981,96.316010 
	C16.845022,166.259552 66.949715,249.152390 146.007538,249.014084 
	C200.959885,248.917953 247.185318,204.588745 248.994461,149.341812 
z"/>
<path fill="#513025" opacity="1.000000" stroke="none" 
	d="
M188.515823,244.461075 
	C190.578186,244.433685 193.153198,243.913544 193.855576,244.829437 
	C195.899902,247.495331 194.841965,253.799622 192.463974,255.299438 
	C190.802170,256.347565 188.911774,257.380829 187.028519,257.598267 
	C185.920486,257.726196 183.632858,256.305389 183.583618,255.479370 
	C183.330475,251.232025 182.847198,246.608627 188.515823,244.461075 
z"/>
<path fill="#523125" opacity="1.000000" stroke="none" 
	d="
M138.244598,34.289307 
	C141.032944,25.659637 142.661728,24.427061 149.093048,25.313778 
	C151.954269,25.708265 152.740372,27.062902 151.942200,29.739952 
	C150.218246,35.522034 146.576950,37.997833 140.806900,36.896370 
	C139.822205,36.708397 139.042496,35.446564 138.244598,34.289307 
z"/>
<path fill="#513025" opacity="1.000000" stroke="none" 
	d="
M162.534576,263.781219 
	C161.835251,263.956787 161.501282,264.083771 161.184860,264.049286 
	C158.750031,263.784149 156.318604,263.487732 153.886124,263.201019 
	C154.742981,260.280304 154.789856,256.535156 156.685989,254.672272 
	C158.557068,252.834030 162.283234,252.818268 165.242325,252.244080 
	C165.576675,252.179199 166.798889,253.875641 166.614548,254.415848 
	C165.544006,257.552795 164.175674,260.588135 162.534576,263.781219 
z"/>
<path fill="#513125" opacity="1.000000" stroke="none" 
	d="
M222.662567,232.298187 
	C219.701050,224.724991 220.062241,222.159744 224.791107,218.887756 
	C225.689453,218.266205 227.829285,218.109558 228.514206,218.723083 
	C233.222900,222.941071 232.275070,230.245651 226.643173,233.199783 
	C225.731216,233.678146 224.131699,232.845642 222.662567,232.298187 
z"/>
<path fill="#513025" opacity="1.000000" stroke="none" 
	d="
M30.827822,139.123337 
	C37.325489,142.530487 37.893456,143.877121 36.409966,151.698624 
	C28.729223,152.721619 24.693764,149.191315 25.301767,142.121964 
	C25.609125,138.548279 27.080545,137.266052 30.827822,139.123337 
z"/>
<path fill="#513125" opacity="1.000000" stroke="none" 
	d="
M54.002655,200.990662 
	C54.138252,206.641205 52.845455,207.883759 46.659607,208.028320 
	C43.357471,208.105469 38.797752,203.629410 39.148216,200.206833 
	C39.255466,199.159439 40.754059,197.701859 41.872173,197.407639 
	C46.378269,196.221939 50.398125,197.163589 53.671299,201.091064 
	C54.035217,201.022934 54.009682,201.003967 54.002655,200.990662 
z"/>
<path fill="#523125" opacity="1.000000" stroke="none" 
	d="
M238.008301,91.001678 
	C237.393112,89.162430 236.767548,87.307564 236.140152,85.453308 
	C242.300766,80.364143 248.303177,81.718987 251.098343,88.744324 
	C252.051620,91.140335 251.609192,93.096695 248.964508,92.976913 
	C245.508194,92.820381 242.091263,91.794472 238.314041,91.051025 
	C237.970703,90.959473 237.997955,90.986061 238.008301,91.001678 
z"/>
<path fill="#503024" opacity="1.000000" stroke="none" 
	d="
M153.167297,33.488098 
	C156.772888,26.119808 158.868912,24.928246 165.006165,27.091499 
	C166.079926,27.469980 167.474472,29.472391 167.292267,30.461699 
	C166.246460,36.140121 160.715759,39.259026 155.283813,37.263554 
	C154.256424,36.886143 153.770889,35.033791 153.167297,33.488098 
z"/>
<path fill="#503025" opacity="1.000000" stroke="none" 
	d="
M59.978870,211.608154 
	C60.296917,211.863617 60.222076,211.762939 60.197365,211.743835 
	C60.472805,213.964951 65.260170,215.383896 61.569229,218.297058 
	C57.921165,221.176392 52.432888,221.276581 50.300686,218.323090 
	C48.920059,216.410645 47.412506,213.544098 47.901241,211.590195 
	C48.524651,209.097946 56.084415,209.213989 59.978870,211.608154 
z"/>
<path fill="#513025" opacity="1.000000" stroke="none" 
	d="
M231.731750,210.029083 
	C231.895569,209.648376 231.808731,209.736328 231.792847,209.763214 
	C233.057251,208.570099 234.337555,207.350128 235.567810,206.177841 
	C242.654617,211.330811 243.396011,216.773560 237.681946,221.550888 
	C236.836212,222.257980 234.153625,222.319870 233.706467,221.692581 
	C231.327759,218.355484 228.836624,214.801178 231.731750,210.029083 
z"/>
<path fill="#502F24" opacity="1.000000" stroke="none" 
	d="
M230.000732,79.002686 
	C229.528473,76.829071 228.219666,72.956306 228.684555,72.730194 
	C231.403961,71.407501 234.899887,69.749138 237.430313,70.518280 
	C239.915833,71.273781 241.654968,74.719612 243.469147,77.171646 
	C243.714432,77.503159 242.678696,79.484291 241.911865,79.743965 
	C238.156616,81.015594 234.266113,82.401413 230.323364,79.067726 
	C229.958160,78.950653 229.983551,78.988152 230.000732,79.002686 
z"/>
<path fill="#513025" opacity="1.000000" stroke="none" 
	d="
M37.603455,170.118286 
	C38.601284,170.798569 39.608456,171.212250 39.799797,171.865067 
	C40.559788,174.457901 41.064995,177.125427 41.664597,179.765274 
	C39.963615,180.086288 38.259224,180.687515 36.562401,180.666870 
	C33.529697,180.629944 30.403593,180.224518 29.579021,176.507736 
	C29.098444,174.341507 29.031662,172.083481 28.778702,169.866760 
	C31.598429,169.898361 34.418156,169.929977 37.603455,170.118286 
z"/>
<path fill="#513025" opacity="1.000000" stroke="none" 
	d="
M29.672184,113.597015 
	C30.662907,111.140587 30.047781,107.675667 33.886860,108.212875 
	C36.975601,108.645073 41.497990,114.240036 40.694641,117.034004 
	C40.017365,119.389526 38.407429,123.055412 36.834949,123.260292 
	C33.070732,123.750740 29.199038,118.090874 29.672184,113.597015 
z"/>
<path fill="#4F2F24" opacity="1.000000" stroke="none" 
	d="
M69.309738,61.882133 
	C69.608696,63.219704 70.261543,64.498085 69.870728,65.110992 
	C68.166527,67.783699 66.191147,70.290138 64.144966,72.714050 
	C64.062439,72.811806 61.809307,71.687233 61.356064,70.750580 
	C59.838890,67.615273 56.889114,64.348068 60.313541,60.828346 
	C61.944733,59.151756 64.180000,58.062893 66.141632,56.707802 
	C67.155525,58.310760 68.169426,59.913715 69.309738,61.882133 
z"/>
<path fill="#503024" opacity="1.000000" stroke="none" 
	d="
M102.126808,245.050873 
	C102.841713,245.078125 103.238571,245.010468 103.487656,245.171463 
	C105.585548,246.527359 107.656403,247.925110 109.735382,249.310272 
	C107.360924,251.728104 105.348061,255.309631 102.497543,256.195374 
	C100.220131,256.903015 96.875961,254.424057 94.149048,253.069977 
	C93.866020,252.929443 94.150139,250.335892 94.880707,249.713791 
	C96.971535,247.933365 99.427727,246.582001 102.126808,245.050873 
z"/>
<path fill="#513025" opacity="1.000000" stroke="none" 
	d="
M177.457397,39.733070 
	C174.284714,39.759323 171.415421,39.713604 168.593475,39.324593 
	C167.991211,39.241566 166.954529,37.502934 167.145630,37.219208 
	C168.950577,34.539513 170.498901,30.854603 173.084717,29.781719 
	C175.387833,28.826122 178.944092,30.705027 181.846283,31.644878 
	C182.162766,31.747366 182.227692,34.167110 181.679062,35.066708 
	C180.663940,36.731300 179.108261,38.066235 177.457397,39.733070 
z"/>
<path fill="#503024" opacity="1.000000" stroke="none" 
	d="
M40.174080,183.689789 
	C41.204762,183.930801 42.160118,183.894348 42.430050,184.306625 
	C44.078968,186.825256 45.645103,189.410721 46.946930,192.114441 
	C47.029961,192.286911 44.747158,194.107376 43.415962,194.352707 
	C39.975143,194.986786 36.199539,195.560822 34.610821,191.163757 
	C33.859638,189.084686 33.684704,186.797440 33.248680,184.604507 
	C35.426441,184.276245 37.604202,183.947968 40.174080,183.689789 
z"/>
<path fill="#503024" opacity="1.000000" stroke="none" 
	d="
M247.469009,193.437805 
	C246.556564,192.028351 245.197662,190.778717 245.362900,189.781631 
	C245.831024,186.956711 246.821884,184.193756 247.913239,181.532028 
	C248.032288,181.241653 250.532394,181.338776 251.263718,181.995758 
	C253.715485,184.198303 257.499268,185.751099 256.365631,190.210571 
	C256.203430,190.848724 255.918304,191.456543 255.678589,192.073944 
	C253.338455,198.101044 252.230896,198.328568 247.469009,193.437805 
z"/>
<path fill="#513025" opacity="1.000000" stroke="none" 
	d="
M30.994125,154.132050 
	C36.076103,155.211029 38.230568,158.140335 38.545197,162.920395 
	C38.763222,166.232834 37.533226,166.965179 34.508789,166.506912 
	C27.908516,165.506805 26.400358,163.983429 25.971266,157.904083 
	C25.710890,154.215103 27.136822,152.986008 30.994125,154.132050 
z"/>
<path fill="#4F2F24" opacity="1.000000" stroke="none" 
	d="
M26.487759,129.188858 
	C27.622198,126.887489 28.694946,124.971306 29.767693,123.055115 
	C32.469574,125.464035 35.943836,127.456161 37.559917,130.451004 
	C38.416985,132.039276 36.718742,136.767883 34.985138,137.599014 
	C32.043713,139.009171 26.773829,133.517715 26.487759,129.188858 
z"/>
<path fill="#4F2F24" opacity="1.000000" stroke="none" 
	d="
M219.527115,67.668243 
	C219.037155,67.568542 219.026947,67.417099 219.026794,67.406982 
	C219.087555,65.482384 218.502716,62.305882 219.327316,61.883965 
	C222.083817,60.473553 225.531662,59.047203 228.351135,59.573753 
	C230.480392,59.971405 232.147995,63.280319 233.745163,65.492699 
	C233.930161,65.748947 232.536987,67.626434 231.554062,68.158875 
	C227.696594,70.248444 223.762360,70.770088 219.527115,67.668243 
z"/>
<path fill="#4F2F24" opacity="1.000000" stroke="none" 
	d="
M203.400574,51.694992 
	C202.052567,51.788776 200.752213,52.169807 200.149536,51.684464 
	C198.084320,50.021362 194.662811,48.022038 194.699387,46.210266 
	C194.765686,42.924862 201.820435,39.661835 204.569016,41.185242 
	C206.719086,42.376938 208.407578,44.401455 210.301147,46.055939 
	C208.123428,47.899002 205.945724,49.742062 203.400574,51.694992 
z"/>
<path fill="#4F2F24" opacity="1.000000" stroke="none" 
	d="
M254.384186,152.963562 
	C263.037842,154.483551 265.594025,157.966873 263.617371,164.789368 
	C262.830719,167.504532 261.503326,168.183441 258.874908,166.881943 
	C252.586533,163.768097 251.290863,160.245148 254.384186,152.963562 
z"/>
<path fill="#4F2F24" opacity="1.000000" stroke="none" 
	d="
M239.975159,196.018066 
	C241.652176,195.635361 244.382675,194.404053 244.842239,194.981140 
	C246.877655,197.537109 248.742981,200.470383 249.655289,203.566132 
	C250.049423,204.903519 248.344040,207.414246 246.920151,208.546738 
	C245.893051,209.363663 243.075439,209.501755 242.231552,208.702255 
	C238.728806,205.383743 237.397079,201.308975 240.060928,196.346924 
	C240.012817,195.982620 239.983261,196.001923 239.975159,196.018066 
z"/>
<path fill="#502F24" opacity="1.000000" stroke="none" 
	d="
M94.805984,245.920959 
	C89.067551,250.963074 86.362007,251.181000 81.715134,246.878036 
	C80.933090,246.153839 80.228195,243.921906 80.529037,243.679596 
	C82.797951,241.852188 85.212845,239.323944 87.807785,239.033981 
	C90.351700,238.749710 93.220360,240.731659 95.777420,242.047531 
	C96.083298,242.204941 95.329330,244.421890 94.805984,245.920959 
z"/>
<path fill="#503024" opacity="1.000000" stroke="none" 
	d="
M244.030914,100.974274 
	C242.734680,98.070679 243.311478,96.634804 246.293900,96.125610 
	C252.894318,94.998672 255.413895,96.492844 257.462280,102.722122 
	C258.365448,105.468681 257.720612,106.903282 254.794861,107.077950 
	C250.077057,107.359596 245.723557,106.916351 244.030914,100.974274 
z"/>
<path fill="#503024" opacity="1.000000" stroke="none" 
	d="
M82.975708,232.975098 
	C82.821983,234.695038 83.288124,237.477737 82.437630,237.965714 
	C79.750961,239.507248 76.615463,240.721115 73.563194,240.975021 
	C72.084152,241.098068 69.967926,239.071976 68.973953,237.493774 
	C68.356186,236.512924 68.747177,233.852432 69.637794,233.145233 
	C73.666115,229.946579 78.039574,229.329651 82.661697,233.005829 
	C83.020683,233.020218 82.993050,232.987732 82.975708,232.975098 
z"/>
<path fill="#503024" opacity="1.000000" stroke="none" 
	d="
M213.605713,228.996826 
	C213.870224,228.699707 213.766937,228.770950 213.747498,228.795135 
	C215.298767,228.978333 218.064590,228.776581 218.239746,229.356827 
	C219.150848,232.375198 220.198273,235.757111 219.594650,238.681442 
	C219.211456,240.537903 216.175537,242.103424 214.021271,243.187378 
	C213.340729,243.529816 210.938934,242.150787 210.568481,241.114883 
	C208.996063,236.717972 208.459015,232.292664 213.605713,228.996826 
z"/>
<path fill="#513125" opacity="1.000000" stroke="none" 
	d="
M202.999176,236.001770 
	C204.403870,237.228317 206.852615,238.314499 207.025986,239.687881 
	C207.385452,242.535614 207.443909,246.214279 205.908951,248.267715 
	C204.581924,250.043030 200.585892,251.139099 198.308945,250.527542 
	C195.914093,249.884338 196.766769,241.358963 199.199905,239.238220 
	C200.318649,238.263092 201.623032,237.500946 202.941559,236.305328 
	C203.039902,235.968445 203.012894,235.991455 202.999176,236.001770 
z"/>
<path fill="#4F2F24" opacity="1.000000" stroke="none" 
	d="
M41.096539,85.948212 
	C41.320393,85.479706 41.377686,85.306526 41.495373,85.200195 
	C43.280403,83.587463 44.949650,80.877342 46.895996,80.659683 
	C49.286209,80.392403 52.880127,88.003616 51.593067,90.501022 
	C50.441113,92.736267 48.591610,95.483536 46.484600,96.113121 
	C44.321735,96.759392 40.757725,89.867073 41.096539,85.948212 
z"/>
<path fill="#503024" opacity="1.000000" stroke="none" 
	d="
M169.102600,256.466980 
	C169.599991,254.806305 169.659134,252.938828 170.525162,252.421097 
	C173.105240,250.878723 175.967850,249.768173 178.818909,248.771713 
	C179.174454,248.647446 180.804337,250.352295 180.683853,250.990692 
	C180.093857,254.116379 179.888336,257.833008 178.011246,260.026825 
	C176.610168,261.664337 172.878967,261.453125 170.159775,261.604279 
	C169.872726,261.620270 169.412872,258.527588 169.102600,256.466980 
z"/>
<path fill="#4F2F24" opacity="1.000000" stroke="none" 
	d="
M136.432190,253.393494 
	C137.880066,256.344360 135.993393,262.812683 133.190414,263.358215 
	C130.197601,263.940674 126.881744,263.001373 123.748947,262.475800 
	C123.485962,262.431641 123.047585,260.034058 123.534561,259.501434 
	C125.750725,257.077576 128.048706,254.584503 130.780273,252.842331 
	C131.976608,252.079346 134.280594,253.053055 136.432190,253.393494 
z"/>
<path fill="#4F2F24" opacity="1.000000" stroke="none" 
	d="
M124.838196,31.046051 
	C126.728012,27.118986 131.997223,24.790421 135.193954,26.169634 
	C135.758286,26.413109 136.670151,27.123760 136.596069,27.380314 
	C135.706100,30.462402 135.429199,34.246353 133.417435,36.317165 
	C131.743744,38.039970 127.983978,37.736191 125.148224,38.330070 
	C125.020134,36.033768 124.892044,33.737465 124.838196,31.046051 
z"/>
<path fill="#503024" opacity="1.000000" stroke="none" 
	d="
M254.938965,123.956772 
	C263.356537,125.629089 264.956360,127.193176 264.608429,133.546326 
	C264.547638,134.656097 263.229340,136.714203 262.968170,136.640747 
	C259.871429,135.769836 255.992783,135.355896 254.098801,133.233826 
	C252.449402,131.385803 253.040497,127.516731 252.763550,124.529411 
	C252.750000,124.383171 253.907196,124.128410 254.938965,123.956772 
z"/>
<path fill="#4F2E24" opacity="1.000000" stroke="none" 
	d="
M206.998093,58.021004 
	C206.296432,53.786896 208.865707,49.388706 213.530518,49.403706 
	C216.570648,49.413475 219.630203,52.387543 222.554276,54.234425 
	C222.708710,54.331970 221.938034,56.985321 221.155014,57.282814 
	C218.138458,58.428883 214.941666,59.100605 211.390106,59.951256 
	C210.968124,59.953339 210.999741,59.990120 210.868042,59.667671 
	C209.482101,58.889767 208.227875,58.434315 206.973648,57.978859 
	C206.973648,57.978859 206.984360,58.011230 206.998093,58.021004 
z"/>
<path fill="#4F2F24" opacity="1.000000" stroke="none" 
	d="
M187.272369,45.295578 
	C185.382996,44.636787 183.713684,44.243374 182.380478,43.348949 
	C181.662674,42.867393 180.917328,41.005009 181.216888,40.658699 
	C183.219925,38.343025 185.192230,35.170994 187.783905,34.441265 
	C190.104614,33.787830 193.279129,35.752373 195.903473,36.943901 
	C196.423447,37.179993 196.657578,39.856598 196.167389,40.205730 
	C193.469223,42.127460 190.505173,43.675873 187.272369,45.295578 
z"/>
<path fill="#503025" opacity="1.000000" stroke="none" 
	d="
M121.186264,35.073235 
	C120.489983,36.773697 120.186844,38.724850 119.148895,39.265617 
	C116.762993,40.508675 114.040565,41.157410 111.390167,41.766376 
	C111.105713,41.831734 109.817551,39.920315 109.984741,39.137184 
	C110.636490,36.084217 111.167892,32.782150 112.797752,30.251310 
	C113.673058,28.892147 116.716415,28.332537 118.734795,28.425533 
	C123.513664,28.645712 121.422050,32.161129 121.186264,35.073235 
z"/>
<path fill="#503024" opacity="1.000000" stroke="none" 
	d="
M88.129868,39.876953 
	C89.902405,39.935219 92.569847,40.128170 92.577118,40.393848 
	C92.669144,43.759659 93.280373,47.597260 91.872604,50.349602 
	C90.911903,52.227882 86.966454,53.443672 84.409569,53.357201 
	C82.499924,53.292618 82.157005,44.113369 84.012131,42.447952 
	C85.107262,41.464817 86.519073,40.834450 88.129868,39.876953 
z"/>
<path fill="#4F2F24" opacity="1.000000" stroke="none" 
	d="
M59.261612,79.920898 
	C59.108299,80.357857 59.195393,80.269341 59.210503,80.241730 
	C57.415382,81.419273 55.605156,82.624435 53.794930,83.829597 
	C52.177124,80.860344 49.452038,77.942513 49.310993,74.904686 
	C49.208248,72.691856 52.430229,70.241920 54.403656,68.114449 
	C54.666470,67.831123 57.009968,68.625092 57.191288,69.261612 
	C58.144726,72.608597 58.712948,76.065315 59.261612,79.920898 
z"/>
<path fill="#503025" opacity="1.000000" stroke="none" 
	d="
M109.012329,255.183167 
	C113.683342,249.570068 116.475838,248.656723 121.502785,251.017273 
	C122.313454,251.397949 123.588295,252.667633 123.514977,252.778778 
	C121.673653,255.570923 120.177193,259.637329 117.571594,260.579346 
	C115.050713,261.490723 111.352638,259.191254 108.221390,258.152191 
	C108.126793,258.120789 108.588013,256.414520 109.012329,255.183167 
z"/>
<path fill="#4E2E24" opacity="1.000000" stroke="none" 
	d="
M70.701096,223.231689 
	C71.114128,223.438873 70.989937,223.357941 70.966522,223.341064 
	C71.283585,225.045532 72.167404,228.162979 71.881287,228.274323 
	C68.680725,229.519943 65.313034,230.873718 61.961437,230.951447 
	C60.440907,230.986694 58.513512,228.449783 57.447578,226.673477 
	C56.929932,225.810883 57.541447,223.231506 58.378162,222.772903 
	C62.270172,220.639740 66.407318,219.361298 70.701096,223.231689 
z"/>
<path fill="#4F2F24" opacity="1.000000" stroke="none" 
	d="
M41.429031,95.329636 
	C45.933319,100.335960 46.472740,103.485664 43.558586,107.886452 
	C43.021423,108.697647 41.279762,109.760963 41.075218,109.582596 
	C38.649712,107.467789 35.228954,105.468575 34.476349,102.768219 
	C33.810143,100.377853 36.053513,97.090721 37.349991,94.359772 
	C37.494297,94.055801 39.846447,94.799973 41.429031,95.329636 
z"/>
<path fill="#4F2F24" opacity="1.000000" stroke="none" 
	d="
M255.816284,121.246384 
	C254.348404,120.783905 252.705032,120.695824 252.293335,119.938332 
	C250.854538,117.291122 249.780075,114.433029 248.827301,111.568535 
	C248.773773,111.407593 251.053818,109.985565 252.246597,109.987175 
	C255.633270,109.991745 259.478088,109.416603 260.953400,113.875969 
	C262.726349,119.235100 263.222839,123.296066 255.816284,121.246384 
z"/>
<path fill="#4F2E24" opacity="1.000000" stroke="none" 
	d="
M76.009102,63.004890 
	C72.572540,62.463223 68.791092,57.572147 70.289864,53.960487 
	C71.447365,51.171204 74.870346,49.289116 77.445564,47.200275 
	C77.605614,47.070454 79.550003,48.481567 79.998352,49.475971 
	C82.404251,54.812172 80.911026,59.114464 76.038284,62.694744 
	C75.963356,63.039665 75.998383,63.021145 76.009102,63.004890 
z"/>
<path fill="#4F2E24" opacity="1.000000" stroke="none" 
	d="
M256.379456,168.529373 
	C258.200134,170.591125 260.793701,172.344803 260.956177,174.300446 
	C261.202209,177.262161 261.458618,181.479462 257.218262,182.428909 
	C254.581436,183.019318 249.754303,176.644669 249.905762,173.451294 
	C250.168396,167.913864 251.881332,166.484238 256.379456,168.529373 
z"/>
<path fill="#4F2F24" opacity="1.000000" stroke="none" 
	d="
M99.647057,46.948952 
	C98.197556,45.756538 96.225883,44.421013 96.282829,43.178471 
	C96.407845,40.450840 96.771179,36.903965 98.515793,35.316341 
	C100.229156,33.757149 104.150467,33.206100 106.405090,34.058418 
	C108.662384,34.911739 106.788658,43.329735 104.109116,45.049671 
	C102.877205,45.840405 101.407120,46.260082 99.647057,46.948952 
z"/>
<path fill="#4F2E24" opacity="1.000000" stroke="none" 
	d="
M263.823853,141.483337 
	C264.403778,142.538589 265.077209,143.353424 264.957672,144.027664 
	C264.466309,146.798615 267.100159,150.805573 262.634460,152.044128 
	C259.013885,153.048279 253.857376,148.122986 253.753830,144.056396 
	C253.708771,142.286636 253.912552,140.510529 254.063339,137.565079 
	C257.683868,138.943634 260.618317,140.060959 263.823853,141.483337 
z"/>
<path fill="#4E2E24" opacity="1.000000" stroke="none" 
	d="
M143.795837,254.027878 
	C146.654053,253.907257 149.108871,253.907257 151.483673,253.907257 
	C152.568726,261.916107 149.392166,265.496002 142.242996,265.112366 
	C138.586746,264.916199 137.162964,263.464722 139.073486,260.093384 
	C140.273453,257.975952 141.936920,256.121155 143.795837,254.027878 
z"/>
<path fill="#BB8F39" opacity="1.000000" stroke="none" 
	d="
M248.974106,149.816345 
	C247.185318,204.588745 200.959885,248.917953 146.007538,249.014084 
	C66.949715,249.152390 16.845022,166.259552 53.708981,96.316010 
	C75.593590,54.793411 124.072403,33.086456 169.841309,44.316414 
	C216.108154,55.668545 248.874878,97.065659 249.012695,144.343552 
	C249.017548,146.009613 249.001022,147.675720 248.974106,149.816345 
M221.070175,147.317978 
	C223.143158,144.853256 225.216141,142.388535 227.076553,140.176544 
	C217.297211,140.176544 206.843124,140.176544 196.389038,140.176544 
	C204.782333,143.603027 205.642609,150.337387 205.190109,157.877975 
	C204.951355,161.856827 205.111664,165.861801 205.148575,169.854477 
	C205.208130,176.297546 202.297775,180.990036 196.755402,184.090469 
	C194.500992,185.351578 192.143478,186.428360 189.666595,187.672562 
	C197.316528,188.287247 209.971786,183.928360 221.441193,176.315002 
	C221.327332,166.883408 221.213470,157.451797 221.070175,147.317978 
M162.369080,168.095764 
	C157.616516,156.580170 152.863953,145.064575 147.787247,132.763596 
	C153.398651,132.099731 158.402435,131.507751 163.406235,130.915787 
	C159.265396,129.728760 155.140701,128.951965 151.034592,129.040146 
	C147.242035,129.121597 145.473007,127.665504 144.083694,124.243942 
	C136.065750,104.497635 127.833557,84.838257 119.656563,65.156647 
	C116.341278,57.176918 116.150261,57.097305 106.240173,58.773487 
	C117.322144,82.040688 128.320755,105.132866 139.319366,128.225052 
	C138.740219,128.587402 138.161072,128.949768 137.581909,129.312134 
	C136.552719,127.931969 135.270737,126.674133 134.534271,125.152298 
	C128.586197,112.860954 122.750755,100.515152 116.850166,88.200706 
	C116.167389,86.775742 115.296585,85.440880 114.512947,84.064247 
	C114.212547,84.272034 113.912148,84.479828 113.611748,84.687614 
	C119.757896,99.541115 125.904045,114.394608 131.650650,128.282532 
	C119.140312,133.891281 107.129211,139.276184 95.147598,144.647888 
	C95.494377,143.654816 95.993301,141.976746 96.656593,140.366348 
	C101.475975,128.665527 106.258247,116.948441 111.214493,105.305557 
	C112.650551,101.932045 112.714508,99.347336 108.633476,97.341766 
	C107.690544,99.493233 106.814087,101.422813 105.993576,103.375900 
	C96.062103,127.016068 86.142517,150.661240 76.211021,174.301392 
	C73.639427,180.422623 69.713387,185.110840 62.979656,186.911743 
	C62.235317,187.110809 61.666267,187.965302 60.032322,189.348465 
	C71.464401,189.348465 81.631042,189.348465 91.797676,189.348465 
	C91.880112,188.906891 91.962547,188.465317 92.044975,188.023758 
	C90.972618,187.662857 89.925545,187.160065 88.823860,186.963745 
	C80.719223,185.519485 79.218452,182.965225 82.218697,175.294006 
	C82.876396,173.612366 83.735764,171.931900 84.840736,170.514847 
	C96.563477,155.481369 110.974739,144.087982 129.030548,137.400513 
	C133.471924,135.755524 135.313492,136.584091 137.100586,140.970169 
	C148.597565,169.187241 160.376221,197.289520 172.057816,225.431381 
	C175.236328,233.088669 176.461136,233.676529 185.204163,231.255692 
	C169.882050,199.131943 154.598694,167.089432 139.315353,135.046936 
	C140.201309,134.619385 141.087280,134.191849 141.973251,133.764313 
	C153.428085,157.637390 164.882904,181.510468 176.337738,205.383545 
	C176.764267,205.196442 177.190811,205.009354 177.617340,204.822266 
	C172.641586,192.812225 167.665833,180.802170 162.369080,168.095764 
M158.241257,74.811134 
	C152.247910,77.083092 146.254578,79.355057 139.980713,81.733353 
	C141.581329,85.825806 142.831635,89.022606 144.303284,92.785286 
	C154.436615,79.325661 166.848022,72.004906 183.690796,74.922386 
	C199.999725,77.747406 209.196564,89.280724 217.103592,104.019150 
	C217.103592,94.311729 217.103592,86.249413 217.103592,78.187088 
	C213.322586,84.343491 209.148209,81.663147 204.575089,79.478394 
	C190.015366,72.522682 174.859161,70.176483 158.241257,74.811134 
z"/>
<path fill="#BB8F39" opacity="1.000000" stroke="none" 
	d="
M207.088562,58.333771 
	C208.227875,58.434315 209.482101,58.889767 210.891083,59.675198 
	C209.765045,59.566345 208.484268,59.127514 207.088562,58.333771 
z"/>
<path fill="#503025" opacity="1.000000" stroke="none" 
	d="
M162.529587,168.443939 
	C167.665833,180.802170 172.641586,192.812225 177.617340,204.822266 
	C177.190811,205.009354 176.764267,205.196442 176.337738,205.383545 
	C164.882904,181.510468 153.428085,157.637390 141.973251,133.764313 
	C141.087280,134.191849 140.201309,134.619385 139.315353,135.046936 
	C154.598694,167.089432 169.882050,199.131943 185.204163,231.255692 
	C176.461136,233.676529 175.236328,233.088669 172.057816,225.431381 
	C160.376221,197.289520 148.597565,169.187241 137.100586,140.970169 
	C135.313492,136.584091 133.471924,135.755524 129.030548,137.400513 
	C110.974739,144.087982 96.563477,155.481369 84.840736,170.514847 
	C83.735764,171.931900 82.876396,173.612366 82.218697,175.294006 
	C79.218452,182.965225 80.719223,185.519485 88.823860,186.963745 
	C89.925545,187.160065 90.972618,187.662857 92.044975,188.023758 
	C91.962547,188.465317 91.880112,188.906891 91.797676,189.348465 
	C81.631042,189.348465 71.464401,189.348465 60.032322,189.348465 
	C61.666267,187.965302 62.235317,187.110809 62.979656,186.911743 
	C69.713387,185.110840 73.639427,180.422623 76.211021,174.301392 
	C86.142517,150.661240 96.062103,127.016068 105.993576,103.375900 
	C106.814087,101.422813 107.690544,99.493233 108.633476,97.341766 
	C112.714508,99.347336 112.650551,101.932045 111.214493,105.305557 
	C106.258247,116.948441 101.475975,128.665527 96.656593,140.366348 
	C95.993301,141.976746 95.494377,143.654816 95.147598,144.647888 
	C107.129211,139.276184 119.140312,133.891281 131.650650,128.282532 
	C125.904045,114.394608 119.757896,99.541115 113.611748,84.687614 
	C113.912148,84.479828 114.212547,84.272034 114.512947,84.064247 
	C115.296585,85.440880 116.167389,86.775742 116.850166,88.200706 
	C122.750755,100.515152 128.586197,112.860954 134.534271,125.152298 
	C135.270737,126.674133 136.552719,127.931969 137.581909,129.312134 
	C138.161072,128.949768 138.740219,128.587402 139.319366,128.225052 
	C128.320755,105.132866 117.322144,82.040688 106.240173,58.773487 
	C116.150261,57.097305 116.341278,57.176918 119.656563,65.156647 
	C127.833557,84.838257 136.065750,104.497635 144.083694,124.243942 
	C145.473007,127.665504 147.242035,129.121597 151.034592,129.040146 
	C155.140701,128.951965 159.265396,129.728760 163.406235,130.915787 
	C158.402435,131.507751 153.398651,132.099731 147.787247,132.763596 
	C152.863953,145.064575 157.616516,156.580170 162.529587,168.443939 
z"/>
<path fill="#FDFBF9" opacity="1.000000" stroke="none" 
	d="
M220.961899,176.987198 
	C209.971786,183.928360 197.316528,188.287247 189.666595,187.672562 
	C192.143478,186.428360 194.500992,185.351578 196.755402,184.090469 
	C202.297775,180.990036 205.208130,176.297546 205.148575,169.854477 
	C205.111664,165.861801 204.951355,161.856827 205.190109,157.877975 
	C205.642609,150.337387 204.782333,143.603027 196.389038,140.176544 
	C206.843124,140.176544 217.297211,140.176544 227.076553,140.176544 
	C225.216141,142.388535 223.143158,144.853256 221.000916,148.130722 
	C220.941727,158.291382 220.951813,167.639282 220.961899,176.987198 
z"/>
<path fill="#FAF7F2" opacity="1.000000" stroke="none" 
	d="
M158.634918,74.693588 
	C174.859161,70.176483 190.015366,72.522682 204.575089,79.478394 
	C209.148209,81.663147 213.322586,84.343491 217.103592,78.187088 
	C217.103592,86.249413 217.103592,94.311729 217.103592,104.019150 
	C209.196564,89.280724 199.999725,77.747406 183.690796,74.922386 
	C166.848022,72.004906 154.436615,79.325661 144.303284,92.785286 
	C142.831635,89.022606 141.581329,85.825806 139.980713,81.733353 
	C146.254578,79.355057 152.247910,77.083092 158.634918,74.693588 
z"/>
<path fill="#B88800" opacity="1.000000" stroke="none" 
	d="
M221.201538,176.651093 
	C220.951813,167.639282 220.941727,158.291382 221.015625,148.481842 
	C221.213470,157.451797 221.327332,166.883408 221.201538,176.651093 
z"/>
</svg>